<svg width="42" height="42" viewBox="0 0 42 42" fill="none" xmlns="http://www.w3.org/2000/svg">
<circle cx="21" cy="21" r="19.5" fill="white" stroke="#2C90A8" stroke-width="3"/>
<path d="M24.6569 15.64L21.6169 19.74C22.7102 19.94 23.5902 20.4067 24.2569 21.14C24.9235 21.8733 25.2569 22.78 25.2569 23.86C25.2569 25.2333 24.7902 26.3067 23.8569 27.08C22.9102 27.8667 21.7769 28.26 20.4569 28.26C19.3635 28.26 18.4102 28.0133 17.5969 27.52C16.7835 27.0267 16.2035 26.3267 15.8569 25.42L17.4169 24.5C17.8302 25.7933 18.8435 26.44 20.4569 26.44C21.3369 26.44 22.0435 26.2133 22.5769 25.76C23.1235 25.2933 23.3969 24.66 23.3969 23.86C23.3969 23.06 23.1235 22.4267 22.5769 21.96C22.0435 21.4933 21.3369 21.26 20.4569 21.26H19.9769L19.2369 20.12L22.4769 15.74H16.2569V14H24.6569V15.64Z" fill="black"/>
</svg>
