<svg width="256" height="269" viewBox="0 0 256 269" fill="none" xmlns="http://www.w3.org/2000/svg">
<path d="M171.709 50.4589C186.296 59.648 198.496 72.4628 205.511 88.2114C212.401 103.678 212.23 120.868 210.58 137.719C208.898 154.906 205.912 172.233 195.91 186.31C185.477 200.993 170.743 212.754 153.519 218.023C136.388 223.264 118.23 220.02 100.93 215.368C83.6175 210.713 65.5759 205.025 54.0643 191.282C42.7164 177.734 42.2601 158.929 39.092 141.543C35.8725 123.874 29.5262 105.854 35.4056 88.884C41.4497 71.4388 55.6125 57.8421 71.4046 48.2778C86.7447 38.9872 104.745 35.6403 122.675 36.0302C140.061 36.4082 156.995 41.1901 171.709 50.4589Z" fill="#F4F5F6"/>
<g filter="url(#filter0_d_38_107)">
<g clip-path="url(#clip0_38_107)">
<rect width="120" height="166" rx="24" transform="matrix(-0.965926 -0.258819 -0.258819 0.965926 208.245 34.7124)" fill="#FCFCFD"/>
<path d="M114.706 135.606C92.5595 129.672 79.4166 106.908 85.3508 84.7606C91.2851 62.6137 114.049 49.4707 136.196 55.405C158.343 61.3392 171.486 84.1035 165.552 106.25C159.618 128.397 136.853 141.54 114.706 135.606Z" fill="url(#paint0_linear_38_107)"/>
<path fill-rule="evenodd" clip-rule="evenodd" d="M166.879 92.6508C162.291 93.6899 157.648 91.9267 152.95 87.3611C145.156 79.7866 143.476 75.7375 132.784 80.1132C122.092 84.4888 117.26 76.4134 111.438 69.4656C108.907 66.4444 104.893 63.5387 100.561 62.2773C93.3649 67.6599 87.8568 75.4072 85.3506 84.7605C83.4257 91.9442 83.508 99.1928 85.2537 105.911C121.885 111.678 147.104 115.413 160.911 117.116C162.921 113.814 164.501 110.173 165.552 106.25C166.773 101.693 167.186 97.1087 166.879 92.6508Z" fill="url(#paint1_linear_38_107)"/>
<path fill-rule="evenodd" clip-rule="evenodd" d="M99.8661 77.4055L113.548 71.8277L117.57 68.1277L121.228 72.4876L125.107 90.9828L95.6645 85.3814L99.8661 77.4055Z" fill="url(#paint2_linear_38_107)"/>
<path opacity="0.1" d="M122.34 106.85C114.256 104.684 109.459 96.3746 111.625 88.291C113.791 80.2073 122.1 75.4102 130.184 77.5762C138.267 79.7422 143.064 88.0511 140.898 96.1348C138.732 104.218 130.423 109.016 122.34 106.85Z" fill="url(#paint3_linear_38_107)"/>
<path d="M123.732 101.922C118.343 100.478 115.145 94.9382 116.589 89.5491C118.033 84.16 123.572 80.9619 128.961 82.4059C134.35 83.8499 137.548 89.3892 136.104 94.7783C134.66 100.167 129.121 103.366 123.732 101.922Z" fill="url(#paint4_linear_38_107)"/>
<path fill-rule="evenodd" clip-rule="evenodd" d="M110.194 83.5354L117.008 75.9704L117.57 68.1277L121.228 72.4876L125.107 90.9828L95.6645 85.3814L110.194 83.5354Z" fill="url(#paint5_linear_38_107)"/>
<path fill-rule="evenodd" clip-rule="evenodd" d="M156.133 109.135C159.864 102.221 161.211 95.7921 160.174 89.8472L160.67 89.6038C162.773 95.2877 162.675 101.301 160.379 107.643L157.973 108.733L156.133 109.135Z" fill="url(#paint6_linear_38_107)"/>
<path fill-rule="evenodd" clip-rule="evenodd" d="M156.133 109.135C159.864 102.221 161.211 95.7923 160.174 89.8474C161.732 95.4258 160.999 101.721 157.973 108.733C157.973 108.733 157.36 108.867 156.133 109.135Z" fill="url(#paint7_linear_38_107)"/>
<path fill-rule="evenodd" clip-rule="evenodd" d="M160.596 89.9647C158.894 90.6953 158.016 91.5988 157.96 92.6749C157.303 92.1081 157.067 91.4822 157.25 90.7971C157.526 89.7696 159.021 88.9 160.513 89.6942L160.55 89.827L160.596 89.9647Z" fill="url(#paint8_linear_38_107)"/>
<path fill-rule="evenodd" clip-rule="evenodd" d="M160.821 89.5497C158.933 87.6558 157.182 87.4893 155.568 89.0502C157.009 88.8983 158.104 89.0033 158.854 89.365C159.604 89.7268 160.248 89.8518 160.784 89.7402L160.821 89.5497Z" fill="url(#paint9_linear_38_107)"/>
<path fill-rule="evenodd" clip-rule="evenodd" d="M160.563 90.0166C160.835 88.5636 160.688 87.4845 160.123 86.7791C159.557 86.0737 158.495 85.9433 156.936 86.3877C158.64 87.0421 159.618 87.8587 159.87 88.8376C160.122 89.8164 160.353 90.2094 160.563 90.0166Z" fill="url(#paint10_linear_38_107)"/>
<path fill-rule="evenodd" clip-rule="evenodd" d="M160.763 89.6165C162.196 88.1139 163.357 87.811 164.247 88.7078C164.217 87.6414 163.774 87.0048 162.918 86.7982C162.062 86.5915 161.234 87.5169 160.436 89.5742L160.763 89.6165Z" fill="url(#paint11_linear_38_107)"/>
<path fill-rule="evenodd" clip-rule="evenodd" d="M160.692 89.9129C162.435 89.8264 163.399 90.5351 163.586 92.0388C164.368 91.0803 164.344 90.198 163.516 89.392C162.687 88.5861 161.625 88.6839 160.329 89.6856L160.692 89.9129Z" fill="url(#paint12_linear_38_107)"/>
<path d="M160.686 90.1907C160.464 90.1313 160.333 89.9037 160.392 89.6822C160.452 89.4607 160.679 89.3293 160.901 89.3886C161.122 89.448 161.254 89.6756 161.194 89.8971C161.135 90.1186 160.907 90.25 160.686 90.1907Z" fill="url(#paint13_linear_38_107)"/>
<path d="M160.116 90.1809C159.894 90.1215 159.763 89.8939 159.822 89.6724C159.881 89.451 160.109 89.3195 160.33 89.3789C160.552 89.4382 160.683 89.6659 160.624 89.8873C160.565 90.1088 160.337 90.2402 160.116 90.1809Z" fill="url(#paint14_linear_38_107)"/>
<path fill-rule="evenodd" clip-rule="evenodd" d="M94.7716 67.524C90.4295 72.2768 87.132 78.1132 85.3508 84.7608C84.5726 87.6648 84.1225 90.5794 83.9777 93.4653C87.4026 94.2756 89.5583 94.4874 90.445 94.1007C92.1497 93.3572 104.139 92.6277 126.414 91.9122C119.086 86.4356 113.863 82.6483 110.744 80.5501L102.739 69.7125L98.0896 70.3981L94.7716 67.524Z" fill="url(#paint15_linear_38_107)"/>
<path fill-rule="evenodd" clip-rule="evenodd" d="M93.9678 68.4301C90.0223 73.0113 87.0205 78.5296 85.3509 84.7607C84.5728 87.6646 84.1227 90.5792 83.9778 93.4651C87.4027 94.2754 89.5585 94.4872 90.4451 94.1005C92.1498 93.3571 104.14 92.6276 126.414 91.9121L107.346 83.1581L94.8876 81.3069L97.3406 75.0178L93.9678 68.4301Z" fill="url(#paint16_linear_38_107)"/>
<path fill-rule="evenodd" clip-rule="evenodd" d="M166.707 100.192C156.942 95.7049 144.535 93.0778 129.486 92.3104C144.59 102.055 155.085 110.291 160.97 117.019C162.952 113.743 164.511 110.135 165.552 106.25C166.093 104.232 166.475 102.208 166.707 100.192Z" fill="url(#paint17_linear_38_107)"/>
<path fill-rule="evenodd" clip-rule="evenodd" d="M141.569 108.436L143.433 108.163L145.909 107.243C148.642 101.077 149.158 95.0855 147.458 89.2687L146.945 89.4769C147.566 95.4797 145.773 101.799 141.569 108.436Z" fill="url(#paint18_linear_38_107)"/>
<path fill-rule="evenodd" clip-rule="evenodd" d="M141.569 108.436C142.811 108.254 143.432 108.163 143.432 108.163C146.939 101.379 148.11 95.1506 146.945 89.477C147.565 95.4798 145.773 101.799 141.569 108.436Z" fill="url(#paint19_linear_38_107)"/>
<path fill-rule="evenodd" clip-rule="evenodd" d="M147.359 89.6239L147.322 89.4833L147.295 89.3483C145.862 88.452 144.309 89.215 143.963 90.2209C143.732 90.8914 143.924 91.5324 144.54 92.1437C144.67 91.074 145.61 90.234 147.359 89.6239Z" fill="url(#paint20_linear_38_107)"/>
<path fill-rule="evenodd" clip-rule="evenodd" d="M147.328 89.3019C146.117 86.9172 144.503 86.2177 142.486 87.2035C143.903 87.5044 144.913 87.9427 145.514 88.5185C146.116 89.0944 146.689 89.4121 147.234 89.4716L147.328 89.3019Z" fill="url(#paint21_linear_38_107)"/>
<path fill-rule="evenodd" clip-rule="evenodd" d="M147.344 89.5697C147.912 88.2051 147.993 87.119 147.587 86.3115C147.18 85.504 146.168 85.1555 144.551 85.2661C146.082 86.2605 146.869 87.2626 146.912 88.2724C146.954 89.2823 147.099 89.7147 147.344 89.5697Z" fill="url(#paint22_linear_38_107)"/>
<path fill-rule="evenodd" clip-rule="evenodd" d="M147.549 89.2877C149.083 87.8887 150.263 87.6676 151.088 88.6243C151.132 87.5583 150.735 86.8924 149.895 86.6266C149.055 86.3607 148.166 87.2261 147.225 89.2226L147.549 89.2877Z" fill="url(#paint23_linear_38_107)"/>
<path fill-rule="evenodd" clip-rule="evenodd" d="M147.458 89.5789C149.202 89.6142 150.115 90.3884 150.196 91.9015C151.043 90.9998 151.081 90.1181 150.311 89.2563C149.541 88.3945 148.474 88.4181 147.112 89.3269L147.458 89.5789Z" fill="url(#paint24_linear_38_107)"/>
<path d="M147.46 89.8635C147.239 89.8042 147.107 89.5765 147.167 89.3551C147.226 89.1336 147.454 89.0022 147.675 89.0615C147.897 89.1208 148.028 89.3485 147.969 89.57C147.909 89.7914 147.682 89.9229 147.46 89.8635Z" fill="url(#paint25_linear_38_107)"/>
<path d="M146.892 89.8142C146.67 89.7548 146.539 89.5272 146.598 89.3057C146.658 89.0843 146.885 88.9528 147.107 89.0122C147.328 89.0715 147.46 89.2992 147.4 89.5206C147.341 89.7421 147.113 89.8735 146.892 89.8142Z" fill="url(#paint26_linear_38_107)"/>
<path fill-rule="evenodd" clip-rule="evenodd" d="M164.18 110.47C163.745 109.026 162.522 107.883 160.511 107.041C155.184 104.812 158.328 98.8866 150.955 97.9333C143.582 96.98 135.186 93.4062 129.552 92.3454L140.742 107.572L162.639 113.979C163.202 112.843 163.717 111.672 164.18 110.47Z" fill="url(#paint27_linear_38_107)"/>
<path fill-rule="evenodd" clip-rule="evenodd" d="M163.295 112.591C142.67 93.1852 116.452 84.9468 84.6412 87.8756C80.6676 109.004 93.5969 129.95 114.706 135.606C134.647 140.949 155.089 130.827 163.295 112.591Z" fill="url(#paint28_linear_38_107)"/>
<path fill-rule="evenodd" clip-rule="evenodd" d="M132.219 136.475C128.879 133.099 127.557 127.42 128.285 120.397C129.985 104.014 125.08 96.7206 104.124 97.0479C91.3844 97.2469 84.8008 94.7203 84.373 89.4683C81.3225 110.047 94.1272 130.092 114.706 135.606C120.61 137.188 126.558 137.414 132.219 136.475Z" fill="url(#paint29_linear_38_107)"/>
<path fill-rule="evenodd" clip-rule="evenodd" d="M153.932 125.718C154.593 120.857 151.991 116.564 146.125 112.841C133.923 105.096 133.756 92.4179 120.845 94.5106C112.237 95.9058 106.147 96.7391 102.575 97.0108C118.568 96.8013 126.744 101.102 127.103 109.912C127.552 120.951 126.299 132.361 130.907 136.672C139.571 135.52 147.633 131.646 153.932 125.718Z" fill="url(#paint30_linear_38_107)"/>
<path fill-rule="evenodd" clip-rule="evenodd" d="M130.945 136.667C120.503 135.005 122.029 124.219 114.818 122.287C107.591 120.35 97.969 119.783 96.7786 110.305C96.0761 104.712 91.7921 99.6668 83.9268 95.1692C83.7643 113.64 96.0356 130.604 114.706 135.606C120.169 137.07 125.669 137.373 130.945 136.667L130.945 136.667Z" fill="url(#paint31_linear_38_107)"/>
<path fill-rule="evenodd" clip-rule="evenodd" d="M160.465 77.6498C160.196 75.3637 159.169 74.1655 157.385 74.0552C154.708 73.8898 154.851 76.3388 152.108 73.9867C149.366 71.6346 146.162 73.8175 146.162 73.8175C146.162 73.8175 150.93 75.0949 160.465 77.6498Z" fill="url(#paint32_linear_38_107)"/>
<path fill-rule="evenodd" clip-rule="evenodd" d="M114.642 59.165C125.462 62.0641 130.872 63.5137 130.872 63.5137C130.872 63.5137 128.962 59.551 124.933 60.3065C120.903 61.0619 122.433 58.7361 119.708 57.38C117.892 56.476 116.203 57.071 114.642 59.165Z" fill="url(#paint33_linear_38_107)"/>
</g>
</g>
<g filter="url(#filter1_d_38_107)">
<rect width="128" height="160" rx="24" transform="matrix(-0.965926 -0.258819 -0.258819 0.965926 213.05 36)" fill="#FCFCFD"/>
<rect x="-0.612372" y="0.353553" width="127" height="159" rx="23.5" transform="matrix(-0.965926 -0.258819 -0.258819 0.965926 211.937 35.8536)" stroke="#F4F5F6"/>
</g>
<g opacity="0.25">
<rect x="96" y="67" width="64" height="64" rx="32" fill="url(#paint34_linear_38_107)"/>
</g>
<rect width="12" height="12" rx="4" transform="matrix(-0.965926 -0.258819 -0.258819 0.965926 250.697 84.1055)" fill="#FABDC1"/>
<rect width="4" height="4" rx="2" transform="matrix(0.939693 -0.34202 -0.34202 -0.939693 22.7363 175.254)" fill="#9AC8FF"/>
<rect width="8" height="8" rx="2" transform="matrix(0.939693 -0.34202 -0.34202 -0.939693 32.7363 24.2539)" fill="#92A5EF"/>
<defs>
<filter id="filter0_d_38_107" x="33.3701" y="3.6543" width="190.875" height="271.402" filterUnits="userSpaceOnUse" color-interpolation-filters="sRGB">
<feFlood flood-opacity="0" result="BackgroundImageFix"/>
<feColorMatrix in="SourceAlpha" type="matrix" values="0 0 0 0 0 0 0 0 0 0 0 0 0 0 0 0 0 0 127 0" result="hardAlpha"/>
<feMorphology radius="48" operator="erode" in="SourceAlpha" result="effect1_dropShadow_38_107"/>
<feOffset dy="64"/>
<feGaussianBlur stdDeviation="32"/>
<feColorMatrix type="matrix" values="0 0 0 0 0.0583333 0 0 0 0 0.0583333 0 0 0 0 0.0583333 0 0 0 0.08 0"/>
<feBlend mode="multiply" in2="BackgroundImageFix" result="effect1_dropShadow_38_107"/>
<feBlend mode="normal" in="SourceGraphic" in2="effect1_dropShadow_38_107" result="shape"/>
</filter>
<filter id="filter1_d_38_107" x="40" y="2.87109" width="181.05" height="235.677" filterUnits="userSpaceOnUse" color-interpolation-filters="sRGB">
<feFlood flood-opacity="0" result="BackgroundImageFix"/>
<feColorMatrix in="SourceAlpha" type="matrix" values="0 0 0 0 0 0 0 0 0 0 0 0 0 0 0 0 0 0 127 0" result="hardAlpha"/>
<feMorphology radius="24" operator="erode" in="SourceAlpha" result="effect1_dropShadow_38_107"/>
<feOffset dy="40"/>
<feGaussianBlur stdDeviation="16"/>
<feColorMatrix type="matrix" values="0 0 0 0 0.0583333 0 0 0 0 0.0583333 0 0 0 0 0.0583333 0 0 0 0.12 0"/>
<feBlend mode="multiply" in2="BackgroundImageFix" result="effect1_dropShadow_38_107"/>
<feBlend mode="normal" in="SourceGraphic" in2="effect1_dropShadow_38_107" result="shape"/>
</filter>
<linearGradient id="paint0_linear_38_107" x1="145.606" y1="57.9263" x2="134.039" y2="132.404" gradientUnits="userSpaceOnUse">
<stop stop-color="#EEFFFD"/>
<stop offset="1" stop-color="#B7FFF6"/>
</linearGradient>
<linearGradient id="paint1_linear_38_107" x1="137.374" y1="88.6485" x2="135.668" y2="91.9143" gradientUnits="userSpaceOnUse">
<stop stop-color="#EEFFFD"/>
<stop offset="1" stop-color="#B7FFF6"/>
</linearGradient>
<linearGradient id="paint2_linear_38_107" x1="111.077" y1="73.2825" x2="112.436" y2="88.2893" gradientUnits="userSpaceOnUse">
<stop stop-color="#30A0DE"/>
<stop offset="1" stop-color="#194383"/>
</linearGradient>
<linearGradient id="paint3_linear_38_107" x1="130.184" y1="77.5762" x2="126.847" y2="98.866" gradientUnits="userSpaceOnUse">
<stop stop-color="#F9BB49"/>
<stop offset="1" stop-color="#F08523"/>
</linearGradient>
<linearGradient id="paint4_linear_38_107" x1="128.961" y1="82.4059" x2="126.737" y2="96.5991" gradientUnits="userSpaceOnUse">
<stop stop-color="#F9BB49"/>
<stop offset="1" stop-color="#F08523"/>
</linearGradient>
<linearGradient id="paint5_linear_38_107" x1="114.934" y1="75.767" x2="113.806" y2="90.4937" gradientUnits="userSpaceOnUse">
<stop stop-color="#30A0DE"/>
<stop offset="1" stop-color="#194383"/>
</linearGradient>
<linearGradient id="paint6_linear_38_107" x1="159.114" y1="103.407" x2="164.171" y2="89.3707" gradientUnits="userSpaceOnUse">
<stop stop-color="#DB593D"/>
<stop offset="1" stop-color="#F88461"/>
</linearGradient>
<linearGradient id="paint7_linear_38_107" x1="159.57" y1="98.3468" x2="160.885" y2="88.8743" gradientUnits="userSpaceOnUse">
<stop stop-color="#CD4C30"/>
<stop offset="1" stop-color="#F88461" stop-opacity="0"/>
</linearGradient>
<linearGradient id="paint8_linear_38_107" x1="158.822" y1="93.4573" x2="158.863" y2="90.05" gradientUnits="userSpaceOnUse">
<stop stop-color="#13DBBF"/>
<stop offset="1" stop-color="#08B58B"/>
</linearGradient>
<linearGradient id="paint9_linear_38_107" x1="159.948" y1="89.4641" x2="159.413" y2="88.4608" gradientUnits="userSpaceOnUse">
<stop stop-color="#13DBBF"/>
<stop offset="1" stop-color="#08B58B"/>
</linearGradient>
<linearGradient id="paint10_linear_38_107" x1="156.603" y1="86.0852" x2="159.53" y2="89.058" gradientUnits="userSpaceOnUse">
<stop stop-color="#13DBBF"/>
<stop offset="1" stop-color="#08B58B"/>
</linearGradient>
<linearGradient id="paint11_linear_38_107" x1="163.128" y1="90.6351" x2="162.989" y2="87.6116" gradientUnits="userSpaceOnUse">
<stop stop-color="#13DBBF"/>
<stop offset="1" stop-color="#08B58B"/>
</linearGradient>
<linearGradient id="paint12_linear_38_107" x1="159.682" y1="90.4569" x2="163.144" y2="88.6149" gradientUnits="userSpaceOnUse">
<stop stop-color="#13DBBF"/>
<stop offset="1" stop-color="#08B58B"/>
</linearGradient>
<linearGradient id="paint13_linear_38_107" x1="161.286" y1="89.783" x2="160.521" y2="89.9409" gradientUnits="userSpaceOnUse">
<stop stop-color="#E3F35C"/>
<stop offset="1" stop-color="#C3E22F"/>
</linearGradient>
<linearGradient id="paint14_linear_38_107" x1="160.716" y1="89.7732" x2="159.95" y2="89.9311" gradientUnits="userSpaceOnUse">
<stop stop-color="#E3F35C"/>
<stop offset="1" stop-color="#C3E22F"/>
</linearGradient>
<linearGradient id="paint15_linear_38_107" x1="104.68" y1="79.3829" x2="106.812" y2="95.7013" gradientUnits="userSpaceOnUse">
<stop stop-color="#30A0DE"/>
<stop offset="1" stop-color="#194383"/>
</linearGradient>
<linearGradient id="paint16_linear_38_107" x1="104.579" y1="83.1572" x2="106.511" y2="95.6534" gradientUnits="userSpaceOnUse">
<stop stop-color="#30A0DE"/>
<stop offset="1" stop-color="#194383"/>
</linearGradient>
<linearGradient id="paint17_linear_38_107" x1="129.61" y1="96.6232" x2="147.55" y2="112.444" gradientUnits="userSpaceOnUse">
<stop stop-color="#68C179"/>
<stop offset="1" stop-color="#25A062"/>
</linearGradient>
<linearGradient id="paint18_linear_38_107" x1="145.278" y1="102.904" x2="150.183" y2="88.8039" gradientUnits="userSpaceOnUse">
<stop stop-color="#DB593D"/>
<stop offset="1" stop-color="#F88461"/>
</linearGradient>
<linearGradient id="paint19_linear_38_107" x1="145.797" y1="97.8429" x2="147.314" y2="88.366" gradientUnits="userSpaceOnUse">
<stop stop-color="#CD4C30"/>
<stop offset="1" stop-color="#F88461" stop-opacity="0"/>
</linearGradient>
<linearGradient id="paint20_linear_38_107" x1="145.68" y1="92.9888" x2="145.672" y2="89.6297" gradientUnits="userSpaceOnUse">
<stop stop-color="#13DBBF"/>
<stop offset="1" stop-color="#08B58B"/>
</linearGradient>
<linearGradient id="paint21_linear_38_107" x1="146.629" y1="88.5111" x2="146.156" y2="87.4795" gradientUnits="userSpaceOnUse">
<stop stop-color="#13DBBF"/>
<stop offset="1" stop-color="#08B58B"/>
</linearGradient>
<linearGradient id="paint22_linear_38_107" x1="144.361" y1="84.6245" x2="147.043" y2="88.0723" gradientUnits="userSpaceOnUse">
<stop stop-color="#13DBBF"/>
<stop offset="1" stop-color="#08B58B"/>
</linearGradient>
<linearGradient id="paint23_linear_38_107" x1="150.083" y1="90.0489" x2="149.909" y2="87.4681" gradientUnits="userSpaceOnUse">
<stop stop-color="#13DBBF"/>
<stop offset="1" stop-color="#08B58B"/>
</linearGradient>
<linearGradient id="paint24_linear_38_107" x1="146.382" y1="90.4175" x2="149.903" y2="88.4347" gradientUnits="userSpaceOnUse">
<stop stop-color="#13DBBF"/>
<stop offset="1" stop-color="#08B58B"/>
</linearGradient>
<linearGradient id="paint25_linear_38_107" x1="148.06" y1="89.4559" x2="147.295" y2="89.6137" gradientUnits="userSpaceOnUse">
<stop stop-color="#E3F35C"/>
<stop offset="1" stop-color="#C3E22F"/>
</linearGradient>
<linearGradient id="paint26_linear_38_107" x1="147.492" y1="89.4065" x2="146.727" y2="89.5644" gradientUnits="userSpaceOnUse">
<stop stop-color="#E3F35C"/>
<stop offset="1" stop-color="#C3E22F"/>
</linearGradient>
<linearGradient id="paint27_linear_38_107" x1="131.228" y1="98.4059" x2="147.119" y2="107.305" gradientUnits="userSpaceOnUse">
<stop stop-color="#68C179"/>
<stop offset="1" stop-color="#25A062"/>
</linearGradient>
<linearGradient id="paint28_linear_38_107" x1="119.822" y1="102.493" x2="124.275" y2="128.796" gradientUnits="userSpaceOnUse">
<stop stop-color="#77EBFF"/>
<stop offset="1" stop-color="#4D86DE"/>
</linearGradient>
<linearGradient id="paint29_linear_38_107" x1="82.6584" y1="100.498" x2="118.524" y2="152.952" gradientUnits="userSpaceOnUse">
<stop stop-color="#91F6FF"/>
<stop offset="1" stop-color="#4D86DE"/>
</linearGradient>
<linearGradient id="paint30_linear_38_107" x1="124.293" y1="98.9411" x2="129.999" y2="138.635" gradientUnits="userSpaceOnUse">
<stop stop-color="#77EBFF"/>
<stop offset="1" stop-color="#4D86DE"/>
</linearGradient>
<linearGradient id="paint31_linear_38_107" x1="99.3782" y1="111.358" x2="122.519" y2="150.484" gradientUnits="userSpaceOnUse">
<stop stop-color="#91F6FF"/>
<stop offset="1" stop-color="#4D86DE"/>
</linearGradient>
<linearGradient id="paint32_linear_38_107" x1="151.877" y1="73.8757" x2="160.089" y2="79.3655" gradientUnits="userSpaceOnUse">
<stop stop-color="#C1FFF7"/>
<stop offset="1" stop-color="#93E9DE"/>
</linearGradient>
<linearGradient id="paint33_linear_38_107" x1="121.127" y1="59.2311" x2="130.445" y2="65.4605" gradientUnits="userSpaceOnUse">
<stop stop-color="#C1FFF7"/>
<stop offset="1" stop-color="#93E9DE"/>
</linearGradient>
<linearGradient id="paint34_linear_38_107" x1="158.896" y1="133.024" x2="79.0716" y2="128.317" gradientUnits="userSpaceOnUse">
<stop stop-color="#73CEE3"/>
<stop offset="1" stop-color="#2C90A8"/>
</linearGradient>
<clipPath id="clip0_38_107">
<rect width="120" height="166" rx="24" transform="matrix(-0.965926 -0.258819 -0.258819 0.965926 208.245 34.7124)" fill="white"/>
</clipPath>
</defs>
</svg>
