<svg width="20" height="20" viewBox="0 0 20 20" fill="none" xmlns="http://www.w3.org/2000/svg">
<path fill-rule="evenodd" clip-rule="evenodd" d="M5.93576 2.96279C5.01159 3.49629 4.20154 4.20659 3.55186 5.05314C2.9022 5.89969 2.42564 6.86592 2.14938 7.89665C1.59146 9.9783 1.88333 12.1963 2.96076 14.0628C4.0382 15.9293 5.81296 17.2913 7.89463 17.8492C9.97628 18.407 12.1943 18.1153 14.0608 17.0378C14.2753 16.9235 14.5258 16.897 14.7594 16.9639C14.993 17.0308 15.1915 17.1858 15.3131 17.3963C15.4348 17.6067 15.4699 17.856 15.4111 18.0919C15.3524 18.3277 15.2044 18.5315 14.9983 18.6603C13.1076 19.7513 10.912 20.1938 8.74633 19.9202C6.58069 19.6464 4.56409 18.6717 3.0043 17.1447C1.44453 15.6177 0.427237 13.6222 0.107722 11.4628C-0.211793 9.30344 0.184013 7.09887 1.23473 5.18553C2.28544 3.2722 3.93335 1.75522 5.92693 0.866127C7.9205 -0.0229681 10.1502 -0.235337 12.2758 0.261434C14.4014 0.758206 16.306 1.93683 17.699 3.6174C19.092 5.29799 19.8969 7.38822 19.9908 9.56904C19.9958 9.60843 19.9983 9.64809 19.9983 9.68779V9.81779C19.9991 9.89695 19.9991 9.97613 19.9983 10.0553V11.5628C19.9988 12.3074 19.7574 13.0319 19.3105 13.6275C18.8638 14.2232 18.2356 14.6577 17.5206 14.8655C16.8056 15.0735 16.0425 15.0437 15.346 14.7805C14.6495 14.5174 14.0571 14.0353 13.6583 13.4065C12.8649 14.2589 11.7989 14.8077 10.6442 14.9582C9.48943 15.1085 8.31841 14.8512 7.33314 14.2305C6.34788 13.6098 5.61015 12.6647 5.24725 11.5582C4.88436 10.4517 4.91906 9.25324 5.34536 8.16959C5.77166 7.08594 6.56283 6.18508 7.58235 5.62242C8.60189 5.05977 9.78583 4.8706 10.9299 5.08759C12.074 5.30457 13.1065 5.91408 13.8493 6.81094C14.5919 7.70782 14.9984 8.8358 14.9983 10.0003V11.5628C14.9983 11.9772 15.1629 12.3746 15.4559 12.6677C15.7489 12.9607 16.1464 13.1253 16.5608 13.1253C16.9751 13.1253 17.3726 12.9607 17.6656 12.6677C17.9586 12.3746 18.1233 11.9772 18.1233 11.5628V9.83404C18.0945 8.42197 17.6981 7.04177 16.9733 5.82959C16.2484 4.61742 15.2201 3.61513 13.9898 2.92158C12.7594 2.22804 11.3695 1.86719 9.95711 1.87464C8.54476 1.88208 7.15875 2.25757 5.93576 2.96404V2.96279ZM13.1233 10.0003C13.1233 9.17149 12.794 8.37664 12.208 7.79058C11.6219 7.20453 10.8271 6.87529 9.99826 6.87529C9.16946 6.87529 8.3746 7.20453 7.78855 7.79058C7.2025 8.37664 6.87326 9.17149 6.87326 10.0003C6.87326 10.8291 7.2025 11.624 7.78855 12.21C8.3746 12.796 9.16946 13.1253 9.99826 13.1253C10.8271 13.1253 11.6219 12.796 12.208 12.21C12.794 11.624 13.1233 10.8291 13.1233 10.0003Z" fill="#2C90A8"/>
</svg>
