<svg width="241" height="31" viewBox="0 0 241 31" fill="none" xmlns="http://www.w3.org/2000/svg">
<path fill-rule="evenodd" clip-rule="evenodd" d="M35.6446 0.492597C32.6881 1.38137 30.5296 2.83027 28.4041 5.35273C26.1227 8.06019 25.038 10.8638 24.8274 14.5973C24.4152 21.9034 29.1325 28.5219 36.0713 30.373C38.2206 30.9465 41.9341 30.9026 43.9655 30.2796C46.6222 29.465 47.9362 28.6455 50.1797 26.4037C51.8594 24.7253 52.3937 24.0256 53.1144 22.5605C54.3357 20.0785 54.8466 17.9094 54.8466 15.2071C54.8466 11.0799 53.6433 7.91548 50.9725 5.02003C47.7161 1.48986 44.2919 -0.0225516 39.6062 0.000253883C37.795 0.00899245 36.872 0.123659 35.6446 0.492597ZM69.9723 0.29459C67.0182 0.913537 64.296 2.48477 62.0421 4.87147C59.7016 7.34981 58.4929 9.97735 58.0282 13.5968C57.034 21.3411 61.9638 28.5474 69.5836 30.4883C71.2119 30.903 75.0933 30.8534 76.8083 30.396C80.9928 29.2794 84.1206 26.742 86.047 22.9008C87.1108 20.7797 87.1673 20.8761 84.858 20.8761H82.8371L82.1727 22.0521C80.4415 25.1162 77.3256 26.9954 73.622 27.2092C70.2147 27.4059 67.6254 26.4391 65.2778 24.094C63.7176 22.5353 62.7577 20.8611 62.2008 18.7276C61.6824 16.7412 61.8511 12.7274 62.5273 10.9652C63.6495 8.04016 65.6551 5.78114 68.2388 4.53152C69.7545 3.79855 70.0685 3.72693 72.1125 3.64743C74.7238 3.54598 76.2245 3.82369 77.9326 4.7244C79.6329 5.62085 80.657 6.55503 81.8467 8.29422L82.8716 9.79299H84.861C85.9548 9.79299 86.8501 9.73289 86.8501 9.65957C86.8501 9.40658 85.5358 6.94273 84.9393 6.0774C83.1656 3.50421 80.0039 1.26201 77.0562 0.486834C75.3417 0.0360519 71.6809 -0.0634777 69.9723 0.29459ZM128.919 0.216798C126.489 0.694435 124.104 2.55895 123.008 4.83758C121.957 7.0218 122.062 10.4965 123.235 12.3596C124.267 13.9994 125.401 14.7183 129.781 16.5089C134.215 18.3216 135.41 19.577 135.363 22.3729C135.313 25.4052 133.493 27.151 130.375 27.1593C129 27.1629 128.631 27.0792 127.752 26.5631C126.109 25.5983 124.827 23.3697 124.827 21.4767V20.8761H122.88H120.932L121.076 22.151C121.488 25.7905 123.384 28.6495 126.283 30.0049C127.399 30.5266 127.713 30.5714 130.268 30.5725C132.856 30.5737 133.126 30.5341 134.307 29.9819C138.358 28.0864 140.253 24.2167 139.309 19.7675C138.976 18.198 138.4 17.1507 137.258 16.0421C136.068 14.8867 134.573 14.1171 131.762 13.2127C127.934 11.9812 126.72 11.0424 126.335 9.01632C125.949 6.9813 126.786 5.10166 128.458 4.24955C129.447 3.74591 131.527 3.67685 132.572 4.11314C133.595 4.54047 134.549 5.74917 134.85 6.99921L135.111 8.0879H137.081H139.052L138.871 6.76966C138.385 3.21562 135.98 0.786088 132.363 0.194423C130.928 -0.0404528 130.203 -0.0357679 128.919 0.216798ZM0.0603808 2.59965L0.12076 4.99743H9.40176H18.6828L18.7431 2.59965L18.8035 0.201877H9.40176H0L0.0603808 2.59965ZM92.3973 10.3071C92.3973 17.8239 92.4631 20.1158 92.7165 21.4389C93.7118 26.6365 95.8036 29.1856 99.9715 30.2807C101.826 30.7677 106.041 30.8199 107.709 30.3764C109.197 29.9808 111.067 28.9228 112.186 27.8428L113.093 26.9683V28.5129V30.0575L114.96 29.9959L116.827 29.9343L116.881 15.3878L116.936 0.841284H115.03H113.123L113.05 10.6988C112.98 20.2904 112.965 20.5909 112.5 21.8352C111.828 23.6353 111.019 24.6797 109.492 25.717C107.955 26.7612 107.156 27.0284 105.05 27.2028C101.288 27.5142 98.2766 26.0593 97.0792 23.3514C96.1688 21.2921 96.0398 19.6422 96.0319 9.95284L96.0244 0.841284H94.2109H92.3973V10.3071ZM150.482 15.6009L150.537 29.2949L151.23 29.3616L151.924 29.4286V17.4919C151.924 10.9269 151.996 5.51535 152.084 5.46611C152.172 5.41709 154.975 7.42548 158.314 9.9294C161.653 12.4333 164.508 14.482 164.659 14.482C164.811 14.482 167.696 12.4216 171.071 9.90339L177.206 5.32481L177.313 17.3099L177.42 29.2949H178.167H178.913V15.6572C178.913 3.31557 178.881 2.0131 178.571 1.95364C178.256 1.89311 176.967 2.79318 173.545 5.46356C172.822 6.02773 170.543 7.80827 168.482 9.42C166.42 11.0319 164.679 12.3506 164.613 12.3506C164.547 12.3506 163.938 11.8949 163.259 11.3382C162.58 10.7815 161.651 10.0381 161.196 9.68642C160.36 9.04147 158.318 7.43806 155.764 5.42073C152.275 2.66467 151.212 1.90696 150.833 1.90696C150.438 1.90696 150.429 2.25715 150.482 15.6009ZM188.235 3.34563L188.301 4.14489H199.075H209.85L209.916 3.34563L209.982 2.54637H199.075H188.169L188.235 3.34563ZM218.105 3.34563L218.171 4.14489L223.078 4.20692C228.369 4.27384 229.732 4.46587 232.027 5.46825C234.982 6.759 237.248 8.84901 238.482 11.422C241.463 17.6392 238.019 24.3749 230.522 26.9871C228.889 27.5564 228.678 27.5762 223.44 27.654L218.041 27.7343L218.106 28.5146L218.171 29.2949L223.078 29.2813C228.417 29.2666 229.513 29.1212 232.145 28.079C235.447 26.7718 238.205 24.3909 239.643 21.6067C240.703 19.5546 241 18.3199 241 15.9739C241 14.8603 240.866 13.4696 240.703 12.8835C239.4 8.2145 234.941 4.19518 229.713 2.97733C228.139 2.61073 227.128 2.54637 222.95 2.54637H218.038L218.105 3.34563ZM43.112 3.96074C47.4613 5.18222 50.629 9.35052 50.9431 14.2659C51.2456 18.9988 49.3783 23.1059 45.8217 25.5307C41.9446 28.1738 35.9369 27.6796 32.5025 24.4348C25.4092 17.7334 28.6634 5.14194 37.8848 3.60757C39.252 3.37995 41.6122 3.53958 43.112 3.96074ZM0.0650737 21.6753L0.12076 31H2.46768H4.8146L4.87092 24.0198L4.92704 17.0396H11.8583H18.7894V14.6951V12.3506H9.39941H0.00960064L0.0650737 21.6753ZM188.194 15.9739V16.8265H199.075H209.957V15.9739V15.1214H199.075H188.194V15.9739ZM188.235 28.4957L188.301 29.2949L199.129 29.3501L209.957 29.4053V28.5509V27.6964H199.063H188.169L188.235 28.4957Z" fill="#2C90A8"/>
</svg>
