<!DOCTYPE svg PUBLIC "-//W3C//DTD SVG 1.1//EN" "http://www.w3.org/Graphics/SVG/1.1/DTD/svg11.dtd">

<!-- Uploaded to: SVG Repo, www.svgrepo.com, Transformed by: SVG Repo Mixer Tools -->
<svg fill="#2C90A8" height="800px" width="800px" version="1.1" id="Layer_1" xmlns="http://www.w3.org/2000/svg" xmlns:xlink="http://www.w3.org/1999/xlink" viewBox="0 0 511.947 511.947" xml:space="preserve" transform="rotate(180)">

<g id="SVGRepo_bgCarrier" stroke-width="0"/>

<g id="SVGRepo_tracerCarrier" stroke-linecap="round" stroke-linejoin="round"/>

<g id="SVGRepo_iconCarrier"> <g> <g> <path d="M211.76,256.027l195.733-195.52c4.16-4.16,4.16-10.88,0-15.04L365.147,3.12c-4.16-4.16-10.88-4.16-15.04,0 L104.453,248.453c-4.16,4.16-4.16,10.88,0,15.04l245.653,245.333c4.16,4.16,10.88,4.16,15.04,0l42.347-42.24 c4.16-4.16,4.16-10.88,0-15.04L211.76,256.027z M357.573,486.213L127.067,256.027L357.573,25.733l27.307,27.2L189.04,248.347 c-4.16,4.16-4.16,10.88,0,15.04l195.733,195.52L357.573,486.213z"/> </g> </g> </g>

</svg>