<svg width="256" height="269" viewBox="0 0 256 269" fill="none" xmlns="http://www.w3.org/2000/svg">
<path d="M134.62 34C153.222 33.9958 171.765 38.5419 187.235 48.8741C202.685 59.1935 214.229 74.465 221.068 91.7401C227.755 108.633 228.602 127.114 225.277 144.976C222.011 162.524 214.449 179.03 202.373 192.174C190.4 205.207 174.606 213.765 157.595 218.648C140.468 223.564 122.35 225.03 105.241 220.054C87.9481 215.024 76.4168 202.003 64.5 188.5C52.3722 174.758 39.5638 160.712 36.8693 142.583C34.1441 124.246 37.9892 105.546 46.1212 88.8871C54.1998 72.3377 66.9511 58.6044 82.6014 48.898C98.2461 39.1951 116.21 34.0042 134.62 34Z" fill="#F4F5F6"/>
<g filter="url(#filter0_d_38_117)">
<g clip-path="url(#clip0_38_117)">
<rect x="52.8047" y="34.7124" width="120" height="166" rx="24" transform="rotate(-15 52.8047 34.7124)" fill="#FCFCFD"/>
<path d="M146.343 135.606C168.49 129.672 181.633 106.908 175.699 84.7606C169.765 62.6137 147 49.4707 124.853 55.405C102.707 61.3392 89.5636 84.1035 95.4978 106.25C101.432 128.397 124.196 141.54 146.343 135.606Z" fill="url(#paint0_linear_38_117)"/>
<path fill-rule="evenodd" clip-rule="evenodd" d="M94.1704 92.6508C98.7588 93.6899 103.402 91.9267 108.1 87.3611C115.894 79.7866 117.574 75.7375 128.266 80.1132C138.958 84.4888 143.79 76.4134 149.611 69.4656C152.143 66.4444 156.156 63.5387 160.489 62.2773C167.685 67.6599 173.193 75.4072 175.699 84.7605C177.624 91.9442 177.542 99.1928 175.796 105.911C139.164 111.678 113.945 115.413 100.139 117.116C98.1285 113.814 96.5493 110.173 95.4981 106.25C94.2768 101.693 93.8636 97.1087 94.1704 92.6508Z" fill="url(#paint1_linear_38_117)"/>
<path fill-rule="evenodd" clip-rule="evenodd" d="M161.184 77.4055L147.502 71.8277L143.48 68.1277L139.822 72.4876L135.943 90.9828L165.385 85.3814L161.184 77.4055Z" fill="url(#paint2_linear_38_117)"/>
<path opacity="0.1" d="M138.71 106.85C146.794 104.684 151.591 96.3746 149.425 88.291C147.259 80.2073 138.95 75.4102 130.866 77.5762C122.783 79.7422 117.985 88.0511 120.151 96.1348C122.317 104.218 130.626 109.016 138.71 106.85Z" fill="url(#paint3_linear_38_117)"/>
<path d="M137.318 101.922C142.707 100.478 145.905 94.9382 144.461 89.5491C143.017 84.16 137.478 80.9619 132.089 82.4059C126.7 83.8499 123.502 89.3892 124.946 94.7783C126.39 100.167 131.929 103.366 137.318 101.922Z" fill="url(#paint4_linear_38_117)"/>
<path fill-rule="evenodd" clip-rule="evenodd" d="M150.855 83.5354L144.042 75.9704L143.48 68.1277L139.822 72.4876L135.943 90.9828L165.385 85.3814L150.855 83.5354Z" fill="url(#paint5_linear_38_117)"/>
<path fill-rule="evenodd" clip-rule="evenodd" d="M104.916 109.135C101.185 102.221 99.8386 95.7921 100.876 89.8472L100.379 89.6038C98.2773 95.2877 98.3744 101.301 100.671 107.643L103.077 108.733L104.916 109.135Z" fill="url(#paint6_linear_38_117)"/>
<path fill-rule="evenodd" clip-rule="evenodd" d="M104.916 109.135C101.185 102.221 99.8385 95.7923 100.876 89.8474C99.3175 95.4258 100.051 101.721 103.077 108.733C103.077 108.733 103.69 108.867 104.916 109.135Z" fill="url(#paint7_linear_38_117)"/>
<path fill-rule="evenodd" clip-rule="evenodd" d="M100.453 89.9647C102.155 90.6953 103.034 91.5988 103.089 92.6749C103.746 92.1081 103.983 91.4822 103.8 90.7971C103.524 89.7696 102.029 88.9 100.537 89.6942L100.5 89.827L100.453 89.9647Z" fill="url(#paint8_linear_38_117)"/>
<path fill-rule="evenodd" clip-rule="evenodd" d="M100.229 89.5497C102.117 87.6558 103.868 87.4893 105.482 89.0502C104.041 88.8983 102.946 89.0033 102.196 89.365C101.445 89.7268 100.802 89.8518 100.266 89.7402L100.229 89.5497Z" fill="url(#paint9_linear_38_117)"/>
<path fill-rule="evenodd" clip-rule="evenodd" d="M100.487 90.0166C100.215 88.5636 100.362 87.4845 100.927 86.7791C101.492 86.0737 102.555 85.9433 104.114 86.3877C102.41 87.0421 101.432 87.8587 101.18 88.8376C100.928 89.8164 100.697 90.2094 100.487 90.0166Z" fill="url(#paint10_linear_38_117)"/>
<path fill-rule="evenodd" clip-rule="evenodd" d="M100.287 89.6165C98.8538 88.1139 97.6924 87.811 96.8026 88.7078C96.8329 87.6414 97.276 87.0048 98.1321 86.7982C98.9881 86.5915 99.8155 87.5169 100.614 89.5742L100.287 89.6165Z" fill="url(#paint11_linear_38_117)"/>
<path fill-rule="evenodd" clip-rule="evenodd" d="M100.358 89.9129C98.6152 89.8264 97.6507 90.5351 97.4641 92.0388C96.6822 91.0803 96.7056 90.198 97.5341 89.392C98.3625 88.5861 99.4247 88.6839 100.72 89.6856L100.358 89.9129Z" fill="url(#paint12_linear_38_117)"/>
<path d="M100.364 90.1907C100.585 90.1313 100.717 89.9037 100.658 89.6822C100.598 89.4607 100.371 89.3293 100.149 89.3886C99.9276 89.448 99.7962 89.6756 99.8555 89.8971C99.9148 90.1186 100.142 90.25 100.364 90.1907Z" fill="url(#paint13_linear_38_117)"/>
<path d="M100.934 90.1809C101.156 90.1215 101.287 89.8939 101.228 89.6724C101.168 89.451 100.941 89.3195 100.719 89.3789C100.498 89.4382 100.366 89.6659 100.426 89.8873C100.485 90.1088 100.713 90.2402 100.934 90.1809Z" fill="url(#paint14_linear_38_117)"/>
<path fill-rule="evenodd" clip-rule="evenodd" d="M166.278 67.524C170.62 72.2768 173.918 78.1132 175.699 84.7608C176.477 87.6648 176.927 90.5794 177.072 93.4653C173.647 94.2756 171.491 94.4874 170.605 94.1007C168.9 93.3572 156.91 92.6277 134.636 91.9122C141.964 86.4356 147.187 82.6483 150.306 80.5501L158.311 69.7125L162.96 70.3981L166.278 67.524Z" fill="url(#paint15_linear_38_117)"/>
<path fill-rule="evenodd" clip-rule="evenodd" d="M167.082 68.4301C171.027 73.0113 174.029 78.5296 175.699 84.7607C176.477 87.6646 176.927 90.5792 177.072 93.4651C173.647 94.2754 171.491 94.4872 170.605 94.1005C168.9 93.3571 156.91 92.6276 134.635 91.9121L153.704 83.1581L166.162 81.3069L163.709 75.0178L167.082 68.4301Z" fill="url(#paint16_linear_38_117)"/>
<path fill-rule="evenodd" clip-rule="evenodd" d="M94.343 100.192C104.107 95.7049 116.514 93.0778 131.564 92.3104C116.46 102.055 105.965 110.291 100.08 117.019C98.0974 113.743 96.5387 110.135 95.4979 106.25C94.9569 104.232 94.5745 102.208 94.343 100.192Z" fill="url(#paint17_linear_38_117)"/>
<path fill-rule="evenodd" clip-rule="evenodd" d="M119.481 108.436L117.617 108.163L115.141 107.243C112.408 101.077 111.892 95.0855 113.592 89.2687L114.104 89.4769C113.484 95.4797 115.276 101.799 119.481 108.436Z" fill="url(#paint18_linear_38_117)"/>
<path fill-rule="evenodd" clip-rule="evenodd" d="M119.481 108.436C118.239 108.254 117.618 108.163 117.618 108.163C114.111 101.379 112.94 95.1506 114.105 89.477C113.485 95.4798 115.277 101.799 119.481 108.436Z" fill="url(#paint19_linear_38_117)"/>
<path fill-rule="evenodd" clip-rule="evenodd" d="M113.691 89.6239L113.728 89.4833L113.755 89.3483C115.188 88.452 116.741 89.215 117.087 90.2209C117.318 90.8914 117.126 91.5324 116.51 92.1437C116.379 91.074 115.44 90.234 113.691 89.6239Z" fill="url(#paint20_linear_38_117)"/>
<path fill-rule="evenodd" clip-rule="evenodd" d="M113.722 89.3019C114.933 86.9172 116.547 86.2177 118.564 87.2035C117.147 87.5044 116.137 87.9427 115.536 88.5185C114.934 89.0944 114.361 89.4121 113.816 89.4716L113.722 89.3019Z" fill="url(#paint21_linear_38_117)"/>
<path fill-rule="evenodd" clip-rule="evenodd" d="M113.706 89.5697C113.138 88.2051 113.057 87.119 113.463 86.3115C113.869 85.504 114.881 85.1555 116.499 85.2661C114.968 86.2605 114.181 87.2626 114.138 88.2724C114.095 89.2823 113.951 89.7147 113.706 89.5697Z" fill="url(#paint22_linear_38_117)"/>
<path fill-rule="evenodd" clip-rule="evenodd" d="M113.501 89.2877C111.967 87.8887 110.787 87.6676 109.962 88.6243C109.918 87.5583 110.315 86.8924 111.155 86.6266C111.994 86.3607 112.884 87.2261 113.825 89.2226L113.501 89.2877Z" fill="url(#paint23_linear_38_117)"/>
<path fill-rule="evenodd" clip-rule="evenodd" d="M113.592 89.5789C111.848 89.6142 110.935 90.3884 110.854 91.9015C110.007 90.9998 109.969 90.1181 110.739 89.2563C111.509 88.3945 112.576 88.4181 113.938 89.3269L113.592 89.5789Z" fill="url(#paint24_linear_38_117)"/>
<path d="M113.59 89.8635C113.811 89.8042 113.942 89.5765 113.883 89.3551C113.824 89.1336 113.596 89.0022 113.375 89.0615C113.153 89.1208 113.022 89.3485 113.081 89.57C113.14 89.7914 113.368 89.9229 113.59 89.8635Z" fill="url(#paint25_linear_38_117)"/>
<path d="M114.158 89.8142C114.379 89.7548 114.511 89.5272 114.451 89.3057C114.392 89.0843 114.164 88.9528 113.943 89.0122C113.722 89.0715 113.59 89.2992 113.649 89.5206C113.709 89.7421 113.936 89.8735 114.158 89.8142Z" fill="url(#paint26_linear_38_117)"/>
<path fill-rule="evenodd" clip-rule="evenodd" d="M96.8702 110.47C97.3048 109.026 98.5278 107.883 100.539 107.041C105.866 104.812 102.722 98.8866 110.095 97.9333C117.468 96.98 125.864 93.4062 131.497 92.3454L120.307 107.572L98.4109 113.979C97.8478 112.843 97.3331 111.672 96.8702 110.47Z" fill="url(#paint27_linear_38_117)"/>
<path fill-rule="evenodd" clip-rule="evenodd" d="M97.7549 112.591C118.38 93.1852 144.597 84.9468 176.409 87.8756C180.382 109.004 167.453 129.95 146.343 135.606C126.402 140.949 105.961 130.827 97.7549 112.591Z" fill="url(#paint28_linear_38_117)"/>
<path fill-rule="evenodd" clip-rule="evenodd" d="M128.831 136.475C132.171 133.099 133.493 127.42 132.764 120.397C131.065 104.014 135.969 96.7206 156.926 97.0479C169.665 97.2469 176.249 94.7203 176.677 89.4683C179.727 110.047 166.923 130.092 146.344 135.606C140.44 137.188 134.492 137.414 128.831 136.475Z" fill="url(#paint29_linear_38_117)"/>
<path fill-rule="evenodd" clip-rule="evenodd" d="M107.117 125.718C106.457 120.857 109.059 116.564 114.925 112.841C127.126 105.096 127.294 92.4179 140.205 94.5106C148.813 95.9058 154.903 96.7391 158.475 97.0108C142.482 96.8013 134.306 101.102 133.947 109.912C133.498 120.951 134.751 132.361 130.143 136.672C121.479 135.52 113.417 131.646 107.117 125.718Z" fill="url(#paint30_linear_38_117)"/>
<path fill-rule="evenodd" clip-rule="evenodd" d="M130.105 136.667C140.547 135.005 139.021 124.219 146.232 122.287C153.459 120.35 163.081 119.783 164.271 110.305C164.974 104.712 169.258 99.6668 177.123 95.1692C177.286 113.64 165.014 130.604 146.344 135.606C140.881 137.07 135.381 137.373 130.105 136.667L130.105 136.667Z" fill="url(#paint31_linear_38_117)"/>
<path fill-rule="evenodd" clip-rule="evenodd" d="M100.585 77.6498C100.854 75.3637 101.881 74.1655 103.665 74.0552C106.342 73.8898 106.199 76.3388 108.942 73.9867C111.684 71.6346 114.888 73.8175 114.888 73.8175C114.888 73.8175 110.12 75.0949 100.585 77.6498Z" fill="url(#paint32_linear_38_117)"/>
<path fill-rule="evenodd" clip-rule="evenodd" d="M146.408 59.165C135.588 62.0641 130.178 63.5137 130.178 63.5137C130.178 63.5137 132.088 59.551 136.117 60.3065C140.147 61.0619 138.617 58.7361 141.341 57.38C143.158 56.476 144.846 57.071 146.408 59.165Z" fill="url(#paint33_linear_38_117)"/>
</g>
</g>
<g filter="url(#filter1_d_38_117)">
<rect x="48" y="36" width="128" height="160" rx="24" transform="rotate(-15 48 36)" fill="#FCFCFD"/>
<rect x="48.6124" y="36.3536" width="127" height="159" rx="23.5" transform="rotate(-15 48.6124 36.3536)" stroke="#F4F5F6"/>
</g>
<g opacity="0.25">
<rect x="96" y="67" width="64" height="64" rx="32" fill="url(#paint34_linear_38_117)"/>
</g>
<rect width="12" height="12" rx="2" transform="matrix(-0.258819 0.965926 0.965926 0.258819 209.105 27)" fill="#DCB9F0"/>
<rect width="8" height="8" rx="2" transform="matrix(0.939693 -0.34202 -0.34202 -0.939693 13.7363 108.254)" fill="#9AC8FF"/>
<rect width="4" height="4" rx="2" transform="matrix(0.939693 -0.34202 -0.34202 -0.939693 239.368 165.127)" fill="#FFD166"/>
<defs>
<filter id="filter0_d_38_117" x="36.8047" y="3.6543" width="190.875" height="271.402" filterUnits="userSpaceOnUse" color-interpolation-filters="sRGB">
<feFlood flood-opacity="0" result="BackgroundImageFix"/>
<feColorMatrix in="SourceAlpha" type="matrix" values="0 0 0 0 0 0 0 0 0 0 0 0 0 0 0 0 0 0 127 0" result="hardAlpha"/>
<feMorphology radius="48" operator="erode" in="SourceAlpha" result="effect1_dropShadow_38_117"/>
<feOffset dy="64"/>
<feGaussianBlur stdDeviation="32"/>
<feColorMatrix type="matrix" values="0 0 0 0 0.0583333 0 0 0 0 0.0583333 0 0 0 0 0.0583333 0 0 0 0.08 0"/>
<feBlend mode="multiply" in2="BackgroundImageFix" result="effect1_dropShadow_38_117"/>
<feBlend mode="normal" in="SourceGraphic" in2="effect1_dropShadow_38_117" result="shape"/>
</filter>
<filter id="filter1_d_38_117" x="40" y="2.87109" width="181.05" height="235.677" filterUnits="userSpaceOnUse" color-interpolation-filters="sRGB">
<feFlood flood-opacity="0" result="BackgroundImageFix"/>
<feColorMatrix in="SourceAlpha" type="matrix" values="0 0 0 0 0 0 0 0 0 0 0 0 0 0 0 0 0 0 127 0" result="hardAlpha"/>
<feMorphology radius="24" operator="erode" in="SourceAlpha" result="effect1_dropShadow_38_117"/>
<feOffset dy="40"/>
<feGaussianBlur stdDeviation="16"/>
<feColorMatrix type="matrix" values="0 0 0 0 0.0583333 0 0 0 0 0.0583333 0 0 0 0 0.0583333 0 0 0 0.12 0"/>
<feBlend mode="multiply" in2="BackgroundImageFix" result="effect1_dropShadow_38_117"/>
<feBlend mode="normal" in="SourceGraphic" in2="effect1_dropShadow_38_117" result="shape"/>
</filter>
<linearGradient id="paint0_linear_38_117" x1="115.444" y1="57.9263" x2="127.011" y2="132.404" gradientUnits="userSpaceOnUse">
<stop stop-color="#EEFFFD"/>
<stop offset="1" stop-color="#B7FFF6"/>
</linearGradient>
<linearGradient id="paint1_linear_38_117" x1="123.676" y1="88.6485" x2="125.382" y2="91.9143" gradientUnits="userSpaceOnUse">
<stop stop-color="#EEFFFD"/>
<stop offset="1" stop-color="#B7FFF6"/>
</linearGradient>
<linearGradient id="paint2_linear_38_117" x1="149.973" y1="73.2825" x2="148.614" y2="88.2893" gradientUnits="userSpaceOnUse">
<stop stop-color="#30A0DE"/>
<stop offset="1" stop-color="#194383"/>
</linearGradient>
<linearGradient id="paint3_linear_38_117" x1="130.866" y1="77.5762" x2="134.203" y2="98.866" gradientUnits="userSpaceOnUse">
<stop stop-color="#F9BB49"/>
<stop offset="1" stop-color="#F08523"/>
</linearGradient>
<linearGradient id="paint4_linear_38_117" x1="132.089" y1="82.4059" x2="134.313" y2="96.5991" gradientUnits="userSpaceOnUse">
<stop stop-color="#F9BB49"/>
<stop offset="1" stop-color="#F08523"/>
</linearGradient>
<linearGradient id="paint5_linear_38_117" x1="146.116" y1="75.767" x2="147.244" y2="90.4937" gradientUnits="userSpaceOnUse">
<stop stop-color="#30A0DE"/>
<stop offset="1" stop-color="#194383"/>
</linearGradient>
<linearGradient id="paint6_linear_38_117" x1="101.936" y1="103.407" x2="96.8788" y2="89.3707" gradientUnits="userSpaceOnUse">
<stop stop-color="#DB593D"/>
<stop offset="1" stop-color="#F88461"/>
</linearGradient>
<linearGradient id="paint7_linear_38_117" x1="101.479" y1="98.3468" x2="100.165" y2="88.8743" gradientUnits="userSpaceOnUse">
<stop stop-color="#CD4C30"/>
<stop offset="1" stop-color="#F88461" stop-opacity="0"/>
</linearGradient>
<linearGradient id="paint8_linear_38_117" x1="102.228" y1="93.4573" x2="102.187" y2="90.05" gradientUnits="userSpaceOnUse">
<stop stop-color="#13DBBF"/>
<stop offset="1" stop-color="#08B58B"/>
</linearGradient>
<linearGradient id="paint9_linear_38_117" x1="101.102" y1="89.4641" x2="101.637" y2="88.4608" gradientUnits="userSpaceOnUse">
<stop stop-color="#13DBBF"/>
<stop offset="1" stop-color="#08B58B"/>
</linearGradient>
<linearGradient id="paint10_linear_38_117" x1="104.447" y1="86.0852" x2="101.52" y2="89.058" gradientUnits="userSpaceOnUse">
<stop stop-color="#13DBBF"/>
<stop offset="1" stop-color="#08B58B"/>
</linearGradient>
<linearGradient id="paint11_linear_38_117" x1="97.9221" y1="90.6351" x2="98.0604" y2="87.6116" gradientUnits="userSpaceOnUse">
<stop stop-color="#13DBBF"/>
<stop offset="1" stop-color="#08B58B"/>
</linearGradient>
<linearGradient id="paint12_linear_38_117" x1="101.368" y1="90.4569" x2="97.9057" y2="88.6149" gradientUnits="userSpaceOnUse">
<stop stop-color="#13DBBF"/>
<stop offset="1" stop-color="#08B58B"/>
</linearGradient>
<linearGradient id="paint13_linear_38_117" x1="99.7639" y1="89.783" x2="100.529" y2="89.9409" gradientUnits="userSpaceOnUse">
<stop stop-color="#E3F35C"/>
<stop offset="1" stop-color="#C3E22F"/>
</linearGradient>
<linearGradient id="paint14_linear_38_117" x1="100.334" y1="89.7732" x2="101.099" y2="89.9311" gradientUnits="userSpaceOnUse">
<stop stop-color="#E3F35C"/>
<stop offset="1" stop-color="#C3E22F"/>
</linearGradient>
<linearGradient id="paint15_linear_38_117" x1="156.37" y1="79.3829" x2="154.238" y2="95.7013" gradientUnits="userSpaceOnUse">
<stop stop-color="#30A0DE"/>
<stop offset="1" stop-color="#194383"/>
</linearGradient>
<linearGradient id="paint16_linear_38_117" x1="156.471" y1="83.1572" x2="154.539" y2="95.6534" gradientUnits="userSpaceOnUse">
<stop stop-color="#30A0DE"/>
<stop offset="1" stop-color="#194383"/>
</linearGradient>
<linearGradient id="paint17_linear_38_117" x1="131.44" y1="96.6232" x2="113.499" y2="112.444" gradientUnits="userSpaceOnUse">
<stop stop-color="#68C179"/>
<stop offset="1" stop-color="#25A062"/>
</linearGradient>
<linearGradient id="paint18_linear_38_117" x1="115.771" y1="102.904" x2="110.867" y2="88.8039" gradientUnits="userSpaceOnUse">
<stop stop-color="#DB593D"/>
<stop offset="1" stop-color="#F88461"/>
</linearGradient>
<linearGradient id="paint19_linear_38_117" x1="115.253" y1="97.8429" x2="113.736" y2="88.366" gradientUnits="userSpaceOnUse">
<stop stop-color="#CD4C30"/>
<stop offset="1" stop-color="#F88461" stop-opacity="0"/>
</linearGradient>
<linearGradient id="paint20_linear_38_117" x1="115.369" y1="92.9888" x2="115.378" y2="89.6297" gradientUnits="userSpaceOnUse">
<stop stop-color="#13DBBF"/>
<stop offset="1" stop-color="#08B58B"/>
</linearGradient>
<linearGradient id="paint21_linear_38_117" x1="114.421" y1="88.5111" x2="114.894" y2="87.4795" gradientUnits="userSpaceOnUse">
<stop stop-color="#13DBBF"/>
<stop offset="1" stop-color="#08B58B"/>
</linearGradient>
<linearGradient id="paint22_linear_38_117" x1="116.689" y1="84.6245" x2="114.007" y2="88.0723" gradientUnits="userSpaceOnUse">
<stop stop-color="#13DBBF"/>
<stop offset="1" stop-color="#08B58B"/>
</linearGradient>
<linearGradient id="paint23_linear_38_117" x1="110.967" y1="90.0489" x2="111.141" y2="87.4681" gradientUnits="userSpaceOnUse">
<stop stop-color="#13DBBF"/>
<stop offset="1" stop-color="#08B58B"/>
</linearGradient>
<linearGradient id="paint24_linear_38_117" x1="114.667" y1="90.4175" x2="111.147" y2="88.4347" gradientUnits="userSpaceOnUse">
<stop stop-color="#13DBBF"/>
<stop offset="1" stop-color="#08B58B"/>
</linearGradient>
<linearGradient id="paint25_linear_38_117" x1="112.989" y1="89.4559" x2="113.755" y2="89.6137" gradientUnits="userSpaceOnUse">
<stop stop-color="#E3F35C"/>
<stop offset="1" stop-color="#C3E22F"/>
</linearGradient>
<linearGradient id="paint26_linear_38_117" x1="113.558" y1="89.4065" x2="114.323" y2="89.5644" gradientUnits="userSpaceOnUse">
<stop stop-color="#E3F35C"/>
<stop offset="1" stop-color="#C3E22F"/>
</linearGradient>
<linearGradient id="paint27_linear_38_117" x1="129.822" y1="98.4059" x2="113.931" y2="107.305" gradientUnits="userSpaceOnUse">
<stop stop-color="#68C179"/>
<stop offset="1" stop-color="#25A062"/>
</linearGradient>
<linearGradient id="paint28_linear_38_117" x1="141.228" y1="102.493" x2="136.775" y2="128.796" gradientUnits="userSpaceOnUse">
<stop stop-color="#77EBFF"/>
<stop offset="1" stop-color="#4D86DE"/>
</linearGradient>
<linearGradient id="paint29_linear_38_117" x1="178.391" y1="100.498" x2="142.526" y2="152.952" gradientUnits="userSpaceOnUse">
<stop stop-color="#91F6FF"/>
<stop offset="1" stop-color="#4D86DE"/>
</linearGradient>
<linearGradient id="paint30_linear_38_117" x1="136.757" y1="98.9411" x2="131.051" y2="138.635" gradientUnits="userSpaceOnUse">
<stop stop-color="#77EBFF"/>
<stop offset="1" stop-color="#4D86DE"/>
</linearGradient>
<linearGradient id="paint31_linear_38_117" x1="161.672" y1="111.358" x2="138.53" y2="150.484" gradientUnits="userSpaceOnUse">
<stop stop-color="#91F6FF"/>
<stop offset="1" stop-color="#4D86DE"/>
</linearGradient>
<linearGradient id="paint32_linear_38_117" x1="109.172" y1="73.8757" x2="100.961" y2="79.3655" gradientUnits="userSpaceOnUse">
<stop stop-color="#C1FFF7"/>
<stop offset="1" stop-color="#93E9DE"/>
</linearGradient>
<linearGradient id="paint33_linear_38_117" x1="139.922" y1="59.2311" x2="130.605" y2="65.4605" gradientUnits="userSpaceOnUse">
<stop stop-color="#C1FFF7"/>
<stop offset="1" stop-color="#93E9DE"/>
</linearGradient>
<linearGradient id="paint34_linear_38_117" x1="158.896" y1="133.024" x2="79.0716" y2="128.317" gradientUnits="userSpaceOnUse">
<stop stop-color="#73CEE3"/>
<stop offset="1" stop-color="#2C90A8"/>
</linearGradient>
<clipPath id="clip0_38_117">
<rect x="52.8047" y="34.7124" width="120" height="166" rx="24" transform="rotate(-15 52.8047 34.7124)" fill="white"/>
</clipPath>
</defs>
</svg>
