<svg width="162" height="54" viewBox="0 0 162 54" fill="none" xmlns="http://www.w3.org/2000/svg">
<rect x="1" y="1.15063" width="160" height="51.6986" rx="5.66667" fill="#2C90A8" stroke="#2C90A8" stroke-width="2"/>
<path d="M34 31.3629H24C23.7348 31.3629 23.4804 31.469 23.2929 31.6578C23.1054 31.8466 23 32.1027 23 32.3698C23 32.6368 23.1054 32.8929 23.2929 33.0817C23.4804 33.2705 23.7348 33.3766 24 33.3766H34C34.2652 33.3766 34.5196 33.2705 34.7071 33.0817C34.8946 32.8929 35 32.6368 35 32.3698C35 32.1027 34.8946 31.8466 34.7071 31.6578C34.5196 31.469 34.2652 31.3629 34 31.3629ZM24 23.3081H42C42.2652 23.3081 42.5196 23.2021 42.7071 23.0132C42.8946 22.8244 43 22.5683 43 22.3013C43 22.0342 42.8946 21.7782 42.7071 21.5893C42.5196 21.4005 42.2652 21.2944 42 21.2944H24C23.7348 21.2944 23.4804 21.4005 23.2929 21.5893C23.1054 21.7782 23 22.0342 23 22.3013C23 22.5683 23.1054 22.8244 23.2929 23.0132C23.4804 23.2021 23.7348 23.3081 24 23.3081ZM42 26.3287H24C23.7348 26.3287 23.4804 26.4348 23.2929 26.6236C23.1054 26.8124 23 27.0685 23 27.3355C23 27.6026 23.1054 27.8587 23.2929 28.0475C23.4804 28.2363 23.7348 28.3424 24 28.3424H42C42.2652 28.3424 42.5196 28.2363 42.7071 28.0475C42.8946 27.8587 43 27.6026 43 27.3355C43 27.0685 42.8946 26.8124 42.7071 26.6236C42.5196 26.4348 42.2652 26.3287 42 26.3287Z" fill="white"/>
<path d="M62.4941 25.9911L69.5121 33.9111H67.0041L60.3601 26.5191V33.9111H58.3141V18.5111H60.3601V25.4631L66.7841 18.5111H69.2921L62.4941 25.9911ZM79.2553 24.8031V22.9111H81.1693V33.9111H79.2553V32.0191C78.3166 33.4711 76.9306 34.1971 75.0973 34.1971C73.5426 34.1971 72.23 33.6398 71.1593 32.5251C70.074 31.3958 69.5313 30.0245 69.5313 28.4111C69.5313 26.8125 70.074 25.4485 71.1593 24.3191C72.2446 23.1898 73.5573 22.6251 75.0973 22.6251C76.9306 22.6251 78.3166 23.3511 79.2553 24.8031ZM75.3393 32.3491C76.454 32.3491 77.3853 31.9751 78.1333 31.2271C78.8813 30.4498 79.2553 29.5111 79.2553 28.4111C79.2553 27.2965 78.8813 26.3651 78.1333 25.6171C77.3853 24.8545 76.454 24.4731 75.3393 24.4731C74.2393 24.4731 73.3153 24.8545 72.5673 25.6171C71.8193 26.3651 71.4453 27.2965 71.4453 28.4111C71.4453 29.5111 71.8193 30.4498 72.5673 31.2271C73.3153 31.9751 74.2393 32.3491 75.3393 32.3491ZM82.8372 22.9111H92.2532V24.7591H88.5132V33.9111H86.5992V24.7591H82.8372V22.9111ZM102.609 24.8031V22.9111H104.523V33.9111H102.609V32.0191C101.67 33.4711 100.284 34.1971 98.4508 34.1971C96.8962 34.1971 95.5835 33.6398 94.5128 32.5251C93.4275 31.3958 92.8848 30.0245 92.8848 28.4111C92.8848 26.8125 93.4275 25.4485 94.5128 24.3191C95.5982 23.1898 96.9108 22.6251 98.4508 22.6251C100.284 22.6251 101.67 23.3511 102.609 24.8031ZM98.6928 32.3491C99.8075 32.3491 100.739 31.9751 101.487 31.2271C102.235 30.4498 102.609 29.5111 102.609 28.4111C102.609 27.2965 102.235 26.3651 101.487 25.6171C100.739 24.8545 99.8075 24.4731 98.6928 24.4731C97.5928 24.4731 96.6688 24.8545 95.9208 25.6171C95.1728 26.3651 94.7988 27.2965 94.7988 28.4111C94.7988 29.5111 95.1728 30.4498 95.9208 31.2271C96.6688 31.9751 97.5928 32.3491 98.6928 32.3491ZM108.435 22.9111H116.597V33.9111H114.683V24.7591H110.349V29.2471C110.349 31.0071 109.997 32.2611 109.293 33.0091C108.589 33.7425 107.555 34.0431 106.191 33.9111V32.1071C106.953 32.2098 107.518 32.0411 107.885 31.6011C108.251 31.1465 108.435 30.3471 108.435 29.2031V22.9111ZM128.781 32.5251C127.666 33.6398 126.295 34.1971 124.667 34.1971C123.039 34.1971 121.668 33.6398 120.553 32.5251C119.438 31.4105 118.881 30.0391 118.881 28.4111C118.881 26.7831 119.438 25.4118 120.553 24.2971C121.668 23.1825 123.039 22.6251 124.667 22.6251C126.295 22.6251 127.666 23.1825 128.781 24.2971C129.91 25.4265 130.475 26.7978 130.475 28.4111C130.475 30.0245 129.91 31.3958 128.781 32.5251ZM124.667 32.3271C125.767 32.3271 126.691 31.9531 127.439 31.2051C128.187 30.4571 128.561 29.5258 128.561 28.4111C128.561 27.2965 128.187 26.3651 127.439 25.6171C126.691 24.8691 125.767 24.4951 124.667 24.4951C123.582 24.4951 122.665 24.8691 121.917 25.6171C121.169 26.3651 120.795 27.2965 120.795 28.4111C120.795 29.5258 121.169 30.4571 121.917 31.2051C122.665 31.9531 123.582 32.3271 124.667 32.3271ZM132.731 22.9111H139.947V24.7591H134.645V33.9111H132.731V22.9111Z" fill="white"/>
</svg>
