<svg width="16" height="20" viewBox="0 0 16 20" fill="none" xmlns="http://www.w3.org/2000/svg">
<path fill-rule="evenodd" clip-rule="evenodd" d="M2.6875 0C1.47938 0 0.5 0.979376 0.5 2.1875V17.8125C0.5 19.0206 1.47938 20 2.6875 20H13.3125C14.5206 20 15.5 19.0206 15.5 17.8125V2.1875C15.5 0.979378 14.5206 0 13.3125 0H2.6875ZM2.375 2.1875C2.375 2.01491 2.51491 1.875 2.6875 1.875H13.3125C13.4851 1.875 13.625 2.01491 13.625 2.1875V17.8125C13.625 17.9851 13.4851 18.125 13.3125 18.125H2.6875C2.51491 18.125 2.375 17.9851 2.375 17.8125V2.1875ZM8 16.25C8.69035 16.25 9.25 15.6904 9.25 15C9.25 14.3096 8.69035 13.75 8 13.75C7.30965 13.75 6.75 14.3096 6.75 15C6.75 15.6904 7.30965 16.25 8 16.25Z" fill="#2C90A8"/>
</svg>
